<?xml version="1.0" encoding="UTF-8"?>
<!-- Generator: Adobe Illustrator 16.0.0, SVG Export Plug-In . SVG Version: 6.00 Build 0)  -->
<!DOCTYPE svg PUBLIC "-//W3C//DTD SVG 1.1//EN" "http://www.w3.org/Graphics/SVG/1.1/DTD/svg11.dtd">
<svg version="1.1" id="Layer_1" xmlns="http://www.w3.org/2000/svg" xmlns:xlink="http://www.w3.org/1999/xlink" x="0px" y="0px" width="341px" height="312px" viewBox="0 0 341 312" enable-background="new 0 0 341 312" xml:space="preserve">
<path fill="#FFFFFF" d="M170.357,18.401c84.696,0,153.355,61.33,153.355,136.993c0,75.665-68.659,137-153.355,137  C85.66,292.395,17,231.059,17,155.394C17,79.73,85.66,18.401,170.357,18.401 M170.357,6.401c-43.916,0-85.268,15.334-116.435,43.177  C38.637,63.233,26.619,79.161,18.206,96.932C9.443,115.439,5,135.109,5,155.394c0,20.286,4.443,39.954,13.206,58.461  c8.413,17.771,20.431,33.707,35.717,47.361c31.167,27.844,72.519,43.178,116.435,43.178c43.916,0,85.267-15.334,116.434-43.178  c15.286-13.654,27.303-29.59,35.717-47.361c8.763-18.508,13.205-38.176,13.205-58.461c0-20.284-4.442-39.954-13.205-58.462  c-8.414-17.771-20.431-33.698-35.717-47.354C255.624,21.735,214.273,6.401,170.357,6.401L170.357,6.401z"/>
<path fill="#FFFDFD" d="M168.334,33c-66.826,0-121,54.174-121,121s54.174,121,121,121c66.827,0,121.001-54.174,121.001-121  S235.161,33,168.334,33z M232.334,157.334l-87.667,49.999c0,0-7.337,5.334-8.335-2.333s0.002-102.666,0.002-102.666  S136,95,143.667,99.666c7.667,4.668,86,47.668,86,47.668S240.001,152.667,232.334,157.334z"/>
</svg>